# xmcd
#
# Track frame offsets: 
#        150
#        12048
#        28252
#        43389
#        62565
#        78674
#        94664
#        116329
#        137798
#        155918
#        172200
#        187445
#        204596
#        217291
#        236286
#        252953
#        269744
#
# Disc length: 3840 seconds
#
# Revision: 1
# Processed by: cddbd v1.5.2PL0 Copyright (c) Steve Scherf et al.
# Submitted via: ExactAudioCopy v1.0b5
#
DISCID=0b0efe11
DTITLE=?? - ????01?
DYEAR=2009
DGENRE=stereo
TTITLE0=??
TTITLE1=?????????
TTITLE2=??????????
TTITLE3=????????
TTITLE4=???????????
TTITLE5=????????
TTITLE6=????????
TTITLE7=????
TTITLE8=?????????
TTITLE9=???????? 
TTITLE10=???????????
TTITLE11=???????????
TTITLE12=?????????
TTITLE13=????????
TTITLE14=??????
TTITLE15=??????????
TTITLE16=?????????
EXTD=
EXTT0=
EXTT1=
EXTT2=
EXTT3=
EXTT4=
EXTT5=
EXTT6=
EXTT7=
EXTT8=
EXTT9=
EXTT10=
EXTT11=
EXTT12=
EXTT13=
EXTT14=
EXTT15=
EXTT16=
PLAYORDER=
